# xmcd
#
# Track frame offsets:
#	150
#	10602
#	27972
#	49068
#	71059
#	84929
#	104439
#	124367
#	146399
#	147071
#	167002
#	184306
#
# Disc length: 2658 seconds
#
# Revision: 0
# Processed by: cddbd v1.5.1PL2 Copyright (c) Steve Scherf et al.
# Submitted via: audiograbber 1.82.02
#
DISCID=9f0a600c
DTITLE=Rydah J. Klyde - What's Really Thizzin?
DYEAR=2005
DGENRE=Rap
TTITLE0=Rydah J. Klyde - Up Next
TTITLE1=Rydah J. Klyde, Fed-X - Top Hat
TTITLE2=Rydah J. Klyde, Mistah F.A.B., Dubee, Mac Mall, P.S.D. - Blow Ya' Mind
TTITLE3=Rydah J. Klyde, Mac Dre - Mob Figaz - Wild Nyte
TTITLE4=Rydah J. Klyde - Selfmade
TTITLE5=Rydah J. Klyde - Thizz Kidz
TTITLE6=Rydah J. Klyde, Keak Da Sneak, Johnny Ca$h - Hustlin'
TTITLE7=Rydah J. Klyde, Fed-X - Treal Lyfe
TTITLE8=Rydah J. Klyde - Skit
TTITLE9=Rydah J. Klyde, Fed-X, Johnny Ca$h - Quite Wynin'
TTITLE10=Rydah J. Klyde, J-Diggs - Doez This Shit!
TTITLE11=Rydah J. Klyde, Keak Da Sneak, P.S.D. - Bottom
EXTD=
EXTT0=
EXTT1=
EXTT2=
EXTT3=
EXTT4=
EXTT5=
EXTT6=
EXTT7=
EXTT8=
EXTT9=
EXTT10=
EXTT11=
PLAYORDER=
